<?xml version="1.0" encoding="UTF-8" standalone="no"?>
<svg
   xml:space="preserve"
   version="1.1"
   style="image-rendering:optimizeQuality;shape-rendering:geometricPrecision;text-rendering:geometricPrecision"
   viewBox="0 0 500.00002 500.00002"
   x="0px"
   y="0px"
   fill-rule="evenodd"
   clip-rule="evenodd"
   id="svg9012"
   sodipodi:docname="icons8-youtube.svg"
   width="500"
   height="500"
   inkscape:version="1.2.2 (b0a8486, 2022-12-01)"
   xmlns:inkscape="http://www.inkscape.org/namespaces/inkscape"
   xmlns:sodipodi="http://sodipodi.sourceforge.net/DTD/sodipodi-0.dtd"
   xmlns="http://www.w3.org/2000/svg"
   xmlns:svg="http://www.w3.org/2000/svg"><sodipodi:namedview
     id="namedview9014"
     pagecolor="#ffffff"
     bordercolor="#000000"
     borderopacity="0.25"
     inkscape:showpageshadow="2"
     inkscape:pageopacity="0.0"
     inkscape:pagecheckerboard="0"
     inkscape:deskcolor="#d1d1d1"
     showgrid="false"
     inkscape:zoom="1.0290679"
     inkscape:cx="-27.694966"
     inkscape:cy="182.20372"
     inkscape:window-width="1920"
     inkscape:window-height="1027"
     inkscape:window-x="0"
     inkscape:window-y="25"
     inkscape:window-maximized="0"
     inkscape:current-layer="svg9012" /><defs
     id="defs9002"><style
       type="text/css"
       id="style9000">
   
    .fil0 {fill:black;fill-rule:nonzero}
   
  </style></defs><g
     id="g9006"
     transform="matrix(0.58722613,0,0,0.595534,3.1653421,-7.9412375)"
     style="stroke-width:1.69100166;fill:#f9a200;fill-opacity:1;stroke-dasharray:none"><path
       class="fil0"
       d="M 146.36,229.17 H 519.48 V 182.15 H 146.36 Z m -113.15,0 h 63.66 v -71.76 c 0,-13.67 11.08,-24.75 24.74,-24.75 h 422.62 c 13.66,0 24.74,11.08 24.74,24.75 v 71.76 h 63.66 c 13.66,0 24.74,11.08 24.74,24.74 v 68.83 L 802.92,265.3 c 18.1,-7.82 35.28,5.39 35.28,22.4 l -0.04,367.77 c 0.01,17.02 -17.44,29.39 -33.7,23 L 657.37,620.44 v 68.82 c 0,13.66 -11.08,24.74 -24.74,24.74 H 33.21 C 19.54,714 8.46,702.92 8.46,689.26 V 253.91 c 0,-13.66 11.08,-24.74 24.75,-24.74 z m 214.56,123.17 194.4,97.2 c 18.23,9.12 17.99,35.09 0,44.08 l -196.46,98.23 c -16.58,8.29 -35.67,-4.1 -35.66,-22.04 l -0.1,-196.46 c -0.01,-19.55 21.55,-31.16 37.82,-21.01 z M 376.06,471.58 259.44,413.27 v 116.62 z m 281.31,-95.74 v 191.5 l 131.34,51.82 V 324.01 Z M 607.88,278.66 H 57.95 v 385.85 h 549.93 z"
       id="path9004"
       style="stroke-width:1.69100166;fill:#f9a200;fill-opacity:1;stroke-dasharray:none" /></g></svg>
