<?xml version="1.0" encoding="UTF-8" standalone="no"?>
<svg
   width="48"
   height="48"
   viewBox="0 0 48 48"
   version="1.1"
   id="svg1685"
   sodipodi:docname="reshot-icon-email-add-XVNTYPABZ6.svg"
   inkscape:version="1.2.2 (b0a8486, 2022-12-01)"
   xmlns:inkscape="http://www.inkscape.org/namespaces/inkscape"
   xmlns:sodipodi="http://sodipodi.sourceforge.net/DTD/sodipodi-0.dtd"
   xmlns="http://www.w3.org/2000/svg"
   xmlns:svg="http://www.w3.org/2000/svg">
  <sodipodi:namedview
     id="namedview1687"
     pagecolor="#ffffff"
     bordercolor="#000000"
     borderopacity="0.25"
     inkscape:showpageshadow="2"
     inkscape:pageopacity="0.0"
     inkscape:pagecheckerboard="0"
     inkscape:deskcolor="#d1d1d1"
     showgrid="false"
     inkscape:zoom="21.853746"
     inkscape:cx="30.040616"
     inkscape:cy="28.027232"
     inkscape:window-width="1920"
     inkscape:window-height="979"
     inkscape:window-x="0"
     inkscape:window-y="25"
     inkscape:window-maximized="0"
     inkscape:current-layer="_25-Email-add" />
  <defs
     id="defs1650">
    <style
       id="style1648">.cls-1{fill:#f1f2f2;}.cls-2{fill:#f6b445;}.cls-3{fill:#fed049;}.cls-4{fill:#35dc86;}.cls-5{fill:none;stroke:#474c54;stroke-linecap:round;stroke-linejoin:round;stroke-width:2px;}</style>
  </defs>
  <title
     id="title1652">25-Email-add</title>
  <g
     id="_25-Email-add"
     data-name="25-Email-add">
    <path
       class="cls-1"
       d="M41,19,24,30,7,19V2A.979.979,0,0,1,8,1H40a.979.979,0,0,1,1,1Z"
       id="path1654" />
    <polygon
       class="cls-2"
       points="7 13.91 7 19 1 15 7 9 7 13.91"
       id="polygon1656" />
    <polygon
       class="cls-2"
       points="47 15 41 19 41 13.95 41 9 47 15"
       id="polygon1658" />
    <path
       class="cls-3"
       d="M41,18.91,47,15V43a4.025,4.025,0,0,1-1.17,2.83L39,39,28,28l-.28-.43Z"
       id="path1660" />
    <path
       class="cls-2"
       d="M39,39l6.83,6.83A4.025,4.025,0,0,1,43,47H5a4.025,4.025,0,0,1-2.83-1.17L9,39,20,28l.28-.43L24,30l3.72-2.43L28,28Z"
       id="path1662" />
    <path
       class="cls-3"
       d="M20.28,27.57,20,28,9,39,2.17,45.83A4.025,4.025,0,0,1,1,43V15Z"
       id="path1664" />
    <circle
       class="cls-4"
       cx="35"
       cy="13"
       r="12"
       id="circle1666" />
    <line
       class="cls-5"
       x1="7"
       y1="18.913"
       x2="24"
       y2="30"
       id="line1668"
       style="stroke:#000000;stroke-opacity:1" />
    <path
       class="cls-5"
       d="M47,25V43a4,4,0,0,1-4,4H5a4,4,0,0,1-4-4V15"
       id="path1670"
       style="stroke:#000000;stroke-opacity:1" />
    <line
       class="cls-5"
       x1="9"
       y1="39"
       x2="20"
       y2="28"
       id="line1672"
       style="stroke:#000000;stroke-opacity:1" />
    <path
       class="cls-5"
       d="M7,14V2A.979.979,0,0,1,8,1H24"
       id="path1674"
       style="stroke:#000000;stroke-opacity:1" />
    <line
       class="cls-5"
       x1="6.906"
       y1="9.094"
       x2="1"
       y2="15"
       id="line1676"
       style="stroke:#000000;stroke-opacity:1" />
    <circle
       class="cls-5"
       cx="35"
       cy="13"
       r="12"
       id="circle1678"
       style="fill:#4dd400;fill-opacity:1;stroke:#000000;stroke-opacity:1" />
    <line
       class="cls-5"
       x1="35"
       y1="8"
       x2="35"
       y2="18"
       id="line1680" />
    <line
       class="cls-5"
       x1="40"
       y1="13"
       x2="30"
       y2="13"
       id="line1682"
       style="stroke:#000000;stroke-opacity:1" />
  </g>
</svg>
