<?xml version="1.0" encoding="UTF-8" standalone="no"?>
<svg
   version="1.1"
   x="0px"
   y="0px"
   viewBox="0 0 500 500"
   xml:space="preserve"
   id="svg2091"
   sodipodi:docname="web-dsign.svg"
   inkscape:version="1.2.2 (b0a8486, 2022-12-01)"
   width="500"
   height="500"
   xmlns:inkscape="http://www.inkscape.org/namespaces/inkscape"
   xmlns:sodipodi="http://sodipodi.sourceforge.net/DTD/sodipodi-0.dtd"
   xmlns="http://www.w3.org/2000/svg"
   xmlns:svg="http://www.w3.org/2000/svg"><defs
     id="defs2095" /><sodipodi:namedview
     id="namedview2093"
     pagecolor="#ffffff"
     bordercolor="#000000"
     borderopacity="0.25"
     inkscape:showpageshadow="2"
     inkscape:pageopacity="0.0"
     inkscape:pagecheckerboard="0"
     inkscape:deskcolor="#d1d1d1"
     showgrid="false"
     inkscape:zoom="1.1313697"
     inkscape:cx="-10.16467"
     inkscape:cy="304.05622"
     inkscape:window-width="1920"
     inkscape:window-height="1080"
     inkscape:window-x="0"
     inkscape:window-y="0"
     inkscape:window-maximized="0"
     inkscape:current-layer="svg2091" /><g
     id="g2085"
     style="fill:#00cd06;fill-opacity:1;stroke-width:0.12771"
     transform="matrix(7.9082419,0,0,7.7530104,-17.886615,-14.376512)"><path
       d="m 48.667068,30.202179 c -0.71997,0.899902 -1.849975,1.459961 -3.059936,1.520019 h -0.190064 c -0.46997,0 -0.929931,-0.08008 -1.369995,-0.22998 l -0.390014,0.399902 c 0.300049,2.75 -0.639893,5.470215 -2.619873,7.470215 -0.09009,0.08984 -0.180054,0.169922 -0.28003,0.25 h 7.209961 c 0.550049,0 1,0.449707 1,1 0,0.560059 -0.449951,1 -1,1 H 36.907059 c -3.729981,1.290039 -8.439942,1.830078 -10.229981,1.989746 l -0.09998,0.01025 h -0.180054 c -1.199951,0 -2.280029,-0.709961 -2.75,-1.800293 -0.03003,-0.06982 -0.05994,-0.129883 -0.07996,-0.199707 H 19.14704 c -0.559937,0 -1,-0.439941 -1,-1 0,-0.550293 0.440063,-1 1,-1 h 4.430054 c 0.170044,-0.490234 0.47998,-0.950195 0.900024,-1.300293 0.810059,-0.699707 1.349976,-3.909668 1.679932,-5.82959 0.340088,-2.010254 0.650024,-3.860351 1.310058,-5.260254 0.949951,-1.949707 2.77002,-3.279785 5,-3.649902 0.439942,-0.08008 0.909912,-0.120117 1.399903,-0.120117 0.510009,0 1.030029,0.04004 1.560058,0.129883 l 0.360108,-0.359864 c -0.180054,-0.5 -0.25,-1.020019 -0.230103,-1.549804 0.05994,-1.189942 0.619995,-2.310059 1.540039,-3.080078 L 43.90705,12.812038 H 6.3670192 c -2.0098877,0 -3.6499023,1.630371 -3.6499023,3.640137 v 29.43018 H 63.067092 V 16.452179 c 0,-0.870117 -0.299926,-1.649902 -0.799926,-2.270019 z"
       id="path2079"
       style="fill:#00cd06;fill-opacity:1;stroke-width:0.12771" /><path
       d="m 2.7171168,52.822296 c 0,2.077911 1.7026243,3.649902 3.6499023,3.649902 H 23.607132 v 7.529786 h -4.327271 c -0.552246,0 -1,0.447265 -1,1 0,0.552734 0.447754,1 1,1 h 5.327271 c 7.406334,0 15.071289,0 21.901733,0 0.552247,0 1,-0.447266 1,-1 0,-0.552735 -0.447753,-1 -1,-1 h -4.321777 v -7.529786 h 17.22998 c 1.850773,0 3.650025,-1.470951 3.650025,-3.649902 V 47.882355 H 2.7171168 Z M 30.257156,51.182159 h 5.27002 c 0.549927,0 1,0.439942 1,1 0,0.550293 -0.450073,1 -1,1 h -5.27002 c -0.550048,0 -1,-0.449707 -1,-1 0,-0.560058 0.449951,-1 1,-1 z"
       id="path2081"
       style="fill:#00cd06;fill-opacity:1;stroke-width:0.12771" /><path
       d="m 64.087112,3.1924131 c -1.48999,-1.4902344 -3.839965,-1.6000977 -5.470092,-0.25 L 38.377029,20.122101 c -0.48999,0.410156 -0.789917,1.010254 -0.819946,1.640136 -0.02991,0.640137 0.220093,1.260254 0.670044,1.709961 l 0.06995,0.06983 -2.22998,2.230468 c -1.099976,-0.310058 -2.23999,-0.410156 -3.27002,-0.230468 -1.609985,0.270019 -2.859985,1.180175 -3.519897,2.540039 -0.550049,1.160156 -0.840088,2.890136 -1.150147,4.720214 -0.459961,2.739747 -0.97998,5.850098 -2.379883,7.060059 -0.340087,0.279785 -0.440063,0.75 -0.270019,1.149902 0.159912,0.370118 0.520019,0.600098 0.919922,0.600098 h 0.09009 c 1.069946,-0.100098 10.540039,-1.080078 13.129883,-3.660156 1.820068,-1.830078 2.450073,-4.399903 1.890136,-6.739746 l 2.219971,-2.229981 0.07996,0.07959 c 0.430054,0.42041 1.01001,0.660156 1.609985,0.660156 h 0.100098 c 0.639893,-0.02979 1.23999,-0.330078 1.629883,-0.810058 L 64.347122,8.6523743 c 1.339966,-1.6201177 1.229981,-3.9702154 -0.26001,-5.4599612 z"
       id="path2083"
       style="fill:#00cd06;fill-opacity:1;stroke-width:0.12771" /></g></svg>
