<?xml version="1.0" encoding="UTF-8" standalone="no"?>
<!-- Generator: Adobe Illustrator 27.6.1, SVG Export Plug-In . SVG Version: 6.00 Build 0)  -->

<svg
   version="1.1"
   id="Layer_1"
   x="0px"
   y="0px"
   viewBox="0 0 24 22.5"
   style="enable-background:new 0 0 24 22.5;"
   xml:space="preserve"
   sodipodi:docname="noun-hand-brake-on-811717.svg"
   inkscape:version="1.2 (dc2aeda, 2022-05-15)"
   xmlns:inkscape="http://www.inkscape.org/namespaces/inkscape"
   xmlns:sodipodi="http://sodipodi.sourceforge.net/DTD/sodipodi-0.dtd"
   xmlns:xlink="http://www.w3.org/1999/xlink"
   xmlns="http://www.w3.org/2000/svg"
   xmlns:svg="http://www.w3.org/2000/svg"><defs
   id="defs157" /><sodipodi:namedview
   id="namedview155"
   pagecolor="#ffffff"
   bordercolor="#000000"
   borderopacity="0.25"
   inkscape:showpageshadow="2"
   inkscape:pageopacity="0.0"
   inkscape:pagecheckerboard="0"
   inkscape:deskcolor="#d1d1d1"
   showgrid="false"
   inkscape:zoom="10.488889"
   inkscape:cx="12.108051"
   inkscape:cy="11.25"
   inkscape:window-width="1309"
   inkscape:window-height="456"
   inkscape:window-x="0"
   inkscape:window-y="25"
   inkscape:window-maximized="0"
   inkscape:current-layer="Layer_1" />
<style
   type="text/css"
   id="style132">
	.st0{fill-rule:evenodd;clip-rule:evenodd;fill:#ED1C24;}
</style>
<g
   id="g152"
   style="fill:#ffffff">
	
		<image
   style="overflow:visible;opacity:0.7;fill:#ffffff"
   width="42"
   height="36.139535"
   xlink:href="../../1B1F76EEC639D4F7.png"
   transform="translate(-8.5039,-9.0039)"
   id="image134">
	</image>
	<g
   id="g150"
   style="fill:#ffffff">
		<g
   id="g148"
   style="fill:#ffffff">
			<g
   id="g146"
   style="fill:#ffffff">
				<path
   class="st0"
   d="M19.1,1.9c3.9,3.9,3.9,10.2,0,14.1c-0.4,0.4-0.4,1,0,1.4c0.4,0.4,1,0.4,1.4,0c4.7-4.7,4.7-12.3,0-17      c-0.4-0.4-1-0.4-1.4,0S18.7,1.5,19.1,1.9z"
   id="path136"
   style="fill:#ffffff" />
				<path
   class="st0"
   d="M4.9,16.1C1,12.2,1,5.8,4.9,1.9c0.4-0.4,0.4-1,0-1.4c-0.4-0.4-1-0.4-1.4,0c-4.7,4.7-4.7,12.3,0,17      c0.4,0.4,1,0.4,1.4,0C5.3,17.1,5.3,16.5,4.9,16.1z"
   id="path138"
   style="fill:#ffffff" />
				<path
   class="st0"
   d="M18,9c0,3.3-2.7,6-6,6s-6-2.7-6-6s2.7-6,6-6S18,5.7,18,9z M20,9c0-4.4-3.6-8-8-8S4,4.6,4,9s3.6,8,8,8      S20,13.4,20,9z"
   id="path140"
   style="fill:#ffffff" />
				<path
   class="st0"
   d="M11,6v3c0,0.6,0.4,1,1,1c0.6,0,1-0.4,1-1V6c0-0.6-0.4-1-1-1C11.5,5,11,5.4,11,6z"
   id="path142"
   style="fill:#ffffff" />
				<path
   class="st0"
   d="M13,12c0,0.6-0.4,1-1,1s-1-0.4-1-1s0.4-1,1-1S13,11.4,13,12"
   id="path144"
   style="fill:#ffffff" />
			</g>
		</g>
	</g>
</g>
</svg>
